<mxfile host="app.diagrams.net" modified="2023-04-12T08:54:12.906Z" agent="Mozilla/5.0 (Windows NT 10.0; Win64; x64) AppleWebKit/537.36 (KHTML, like Gecko) Chrome/111.0.0.0 Safari/537.36" etag="OkPIGBF3-h2GzK-JhF6m" version="21.1.4" type="github">
  <diagram name="第 1 页" id="JWBiJj1DIu_vaAsPzKwp">
    <mxGraphModel dx="4521" dy="1096" grid="1" gridSize="10" guides="1" tooltips="1" connect="1" arrows="1" fold="1" page="1" pageScale="1" pageWidth="1654" pageHeight="1169" math="0" shadow="0">
      <root>
        <mxCell id="0" />
        <mxCell id="1" parent="0" />
        <mxCell id="I7dAF6ZlbTrikf9QyhVA-6" value="" style="edgeStyle=orthogonalEdgeStyle;rounded=0;orthogonalLoop=1;jettySize=auto;html=1;" edge="1" parent="1" source="I7dAF6ZlbTrikf9QyhVA-1" target="I7dAF6ZlbTrikf9QyhVA-5">
          <mxGeometry relative="1" as="geometry" />
        </mxCell>
        <mxCell id="I7dAF6ZlbTrikf9QyhVA-1" value="" style="ellipse;fillColor=strokeColor;html=1;" vertex="1" parent="1">
          <mxGeometry x="812" y="30" width="30" height="30" as="geometry" />
        </mxCell>
        <mxCell id="I7dAF6ZlbTrikf9QyhVA-4" value="" style="edgeStyle=orthogonalEdgeStyle;rounded=0;orthogonalLoop=1;jettySize=auto;html=1;" edge="1" parent="1" source="I7dAF6ZlbTrikf9QyhVA-2">
          <mxGeometry relative="1" as="geometry">
            <mxPoint x="821" y="1460" as="targetPoint" />
          </mxGeometry>
        </mxCell>
        <mxCell id="I7dAF6ZlbTrikf9QyhVA-2" value="退出主页面" style="html=1;align=center;verticalAlign=top;rounded=1;absoluteArcSize=1;arcSize=10;dashed=0;whiteSpace=wrap;" vertex="1" parent="1">
          <mxGeometry x="750" y="1380" width="140" height="40" as="geometry" />
        </mxCell>
        <mxCell id="I7dAF6ZlbTrikf9QyhVA-3" value="" style="ellipse;html=1;shape=endState;fillColor=strokeColor;" vertex="1" parent="1">
          <mxGeometry x="805" y="1445" width="30" height="30" as="geometry" />
        </mxCell>
        <mxCell id="I7dAF6ZlbTrikf9QyhVA-8" value="" style="edgeStyle=orthogonalEdgeStyle;rounded=0;orthogonalLoop=1;jettySize=auto;html=1;" edge="1" parent="1" source="I7dAF6ZlbTrikf9QyhVA-5" target="I7dAF6ZlbTrikf9QyhVA-7">
          <mxGeometry relative="1" as="geometry" />
        </mxCell>
        <mxCell id="I7dAF6ZlbTrikf9QyhVA-5" value="登录" style="html=1;align=center;verticalAlign=top;rounded=1;absoluteArcSize=1;arcSize=10;dashed=0;whiteSpace=wrap;" vertex="1" parent="1">
          <mxGeometry x="757" y="110" width="140" height="40" as="geometry" />
        </mxCell>
        <mxCell id="I7dAF6ZlbTrikf9QyhVA-10" value="" style="edgeStyle=orthogonalEdgeStyle;rounded=0;orthogonalLoop=1;jettySize=auto;html=1;" edge="1" parent="1" source="I7dAF6ZlbTrikf9QyhVA-7" target="I7dAF6ZlbTrikf9QyhVA-9">
          <mxGeometry relative="1" as="geometry">
            <Array as="points">
              <mxPoint x="825" y="240" />
              <mxPoint x="825" y="240" />
            </Array>
          </mxGeometry>
        </mxCell>
        <mxCell id="I7dAF6ZlbTrikf9QyhVA-7" value="进入主页面" style="html=1;align=center;verticalAlign=top;rounded=1;absoluteArcSize=1;arcSize=10;dashed=0;whiteSpace=wrap;" vertex="1" parent="1">
          <mxGeometry x="757" y="190" width="140" height="40" as="geometry" />
        </mxCell>
        <mxCell id="I7dAF6ZlbTrikf9QyhVA-26" value="" style="edgeStyle=orthogonalEdgeStyle;rounded=0;orthogonalLoop=1;jettySize=auto;html=1;" edge="1" parent="1" source="I7dAF6ZlbTrikf9QyhVA-9" target="I7dAF6ZlbTrikf9QyhVA-12">
          <mxGeometry relative="1" as="geometry" />
        </mxCell>
        <mxCell id="I7dAF6ZlbTrikf9QyhVA-9" value="" style="html=1;points=[];perimeter=orthogonalPerimeter;fillColor=strokeColor;direction=south;" vertex="1" parent="1">
          <mxGeometry x="700" y="270" width="250" height="5" as="geometry" />
        </mxCell>
        <mxCell id="I7dAF6ZlbTrikf9QyhVA-109" value="" style="edgeStyle=orthogonalEdgeStyle;rounded=0;orthogonalLoop=1;jettySize=auto;html=1;" edge="1" parent="1" source="I7dAF6ZlbTrikf9QyhVA-11" target="I7dAF6ZlbTrikf9QyhVA-108">
          <mxGeometry relative="1" as="geometry" />
        </mxCell>
        <mxCell id="I7dAF6ZlbTrikf9QyhVA-11" value="创作作品" style="html=1;align=center;verticalAlign=top;rounded=1;absoluteArcSize=1;arcSize=10;dashed=0;whiteSpace=wrap;" vertex="1" parent="1">
          <mxGeometry x="-60" y="460" width="140" height="40" as="geometry" />
        </mxCell>
        <mxCell id="I7dAF6ZlbTrikf9QyhVA-27" value="" style="edgeStyle=orthogonalEdgeStyle;rounded=0;orthogonalLoop=1;jettySize=auto;html=1;" edge="1" parent="1" source="I7dAF6ZlbTrikf9QyhVA-12" target="I7dAF6ZlbTrikf9QyhVA-25">
          <mxGeometry relative="1" as="geometry">
            <Array as="points">
              <mxPoint x="827" y="380" />
              <mxPoint x="827" y="380" />
            </Array>
          </mxGeometry>
        </mxCell>
        <mxCell id="I7dAF6ZlbTrikf9QyhVA-12" value="进入我的页面" style="html=1;align=center;verticalAlign=top;rounded=1;absoluteArcSize=1;arcSize=10;dashed=0;whiteSpace=wrap;" vertex="1" parent="1">
          <mxGeometry x="757" y="310" width="140" height="40" as="geometry" />
        </mxCell>
        <mxCell id="I7dAF6ZlbTrikf9QyhVA-99" value="" style="edgeStyle=orthogonalEdgeStyle;rounded=0;orthogonalLoop=1;jettySize=auto;html=1;" edge="1" parent="1" source="I7dAF6ZlbTrikf9QyhVA-13" target="I7dAF6ZlbTrikf9QyhVA-23">
          <mxGeometry relative="1" as="geometry" />
        </mxCell>
        <mxCell id="I7dAF6ZlbTrikf9QyhVA-13" value="欣赏作品" style="html=1;align=center;verticalAlign=top;rounded=1;absoluteArcSize=1;arcSize=10;dashed=0;whiteSpace=wrap;" vertex="1" parent="1">
          <mxGeometry x="1830" y="310" width="140" height="40" as="geometry" />
        </mxCell>
        <mxCell id="I7dAF6ZlbTrikf9QyhVA-81" value="" style="edgeStyle=orthogonalEdgeStyle;rounded=0;orthogonalLoop=1;jettySize=auto;html=1;" edge="1" parent="1" source="I7dAF6ZlbTrikf9QyhVA-14" target="I7dAF6ZlbTrikf9QyhVA-17">
          <mxGeometry relative="1" as="geometry" />
        </mxCell>
        <mxCell id="I7dAF6ZlbTrikf9QyhVA-14" value="查看已创作作品" style="html=1;align=center;verticalAlign=top;rounded=1;absoluteArcSize=1;arcSize=10;dashed=0;whiteSpace=wrap;" vertex="1" parent="1">
          <mxGeometry x="-480" y="405" width="140" height="40" as="geometry" />
        </mxCell>
        <mxCell id="I7dAF6ZlbTrikf9QyhVA-82" value="" style="edgeStyle=orthogonalEdgeStyle;rounded=0;orthogonalLoop=1;jettySize=auto;html=1;" edge="1" parent="1" source="I7dAF6ZlbTrikf9QyhVA-17" target="I7dAF6ZlbTrikf9QyhVA-18">
          <mxGeometry relative="1" as="geometry" />
        </mxCell>
        <mxCell id="I7dAF6ZlbTrikf9QyhVA-17" value="选中作品" style="html=1;align=center;verticalAlign=top;rounded=1;absoluteArcSize=1;arcSize=10;dashed=0;whiteSpace=wrap;" vertex="1" parent="1">
          <mxGeometry x="-480" y="565" width="140" height="40" as="geometry" />
        </mxCell>
        <mxCell id="I7dAF6ZlbTrikf9QyhVA-18" value="" style="html=1;points=[];perimeter=orthogonalPerimeter;fillColor=strokeColor;direction=south;" vertex="1" parent="1">
          <mxGeometry x="-450" y="737.5" width="80" height="5" as="geometry" />
        </mxCell>
        <mxCell id="I7dAF6ZlbTrikf9QyhVA-19" value="编辑作品" style="html=1;align=center;verticalAlign=top;rounded=1;absoluteArcSize=1;arcSize=10;dashed=0;whiteSpace=wrap;" vertex="1" parent="1">
          <mxGeometry x="-590" y="802.5" width="140" height="40" as="geometry" />
        </mxCell>
        <mxCell id="I7dAF6ZlbTrikf9QyhVA-20" value="删除作品" style="html=1;align=center;verticalAlign=top;rounded=1;absoluteArcSize=1;arcSize=10;dashed=0;whiteSpace=wrap;" vertex="1" parent="1">
          <mxGeometry x="-370" y="803" width="140" height="40" as="geometry" />
        </mxCell>
        <mxCell id="I7dAF6ZlbTrikf9QyhVA-87" value="" style="edgeStyle=orthogonalEdgeStyle;rounded=0;orthogonalLoop=1;jettySize=auto;html=1;" edge="1" parent="1" source="I7dAF6ZlbTrikf9QyhVA-21" target="I7dAF6ZlbTrikf9QyhVA-22">
          <mxGeometry relative="1" as="geometry" />
        </mxCell>
        <mxCell id="I7dAF6ZlbTrikf9QyhVA-21" value="" style="html=1;points=[];perimeter=orthogonalPerimeter;fillColor=strokeColor;direction=south;" vertex="1" parent="1">
          <mxGeometry x="-450" y="927.5" width="80" height="5" as="geometry" />
        </mxCell>
        <mxCell id="I7dAF6ZlbTrikf9QyhVA-22" value="退出已创作页面" style="html=1;align=center;verticalAlign=top;rounded=1;absoluteArcSize=1;arcSize=10;dashed=0;whiteSpace=wrap;" vertex="1" parent="1">
          <mxGeometry x="-480" y="1065" width="140" height="40" as="geometry" />
        </mxCell>
        <mxCell id="I7dAF6ZlbTrikf9QyhVA-100" value="" style="edgeStyle=orthogonalEdgeStyle;rounded=0;orthogonalLoop=1;jettySize=auto;html=1;" edge="1" parent="1" source="I7dAF6ZlbTrikf9QyhVA-23" target="I7dAF6ZlbTrikf9QyhVA-79">
          <mxGeometry relative="1" as="geometry" />
        </mxCell>
        <mxCell id="I7dAF6ZlbTrikf9QyhVA-23" value="选中作品" style="html=1;align=center;verticalAlign=top;rounded=1;absoluteArcSize=1;arcSize=10;dashed=0;whiteSpace=wrap;" vertex="1" parent="1">
          <mxGeometry x="1830" y="420" width="140" height="40" as="geometry" />
        </mxCell>
        <mxCell id="I7dAF6ZlbTrikf9QyhVA-24" value="退出页面" style="html=1;align=center;verticalAlign=top;rounded=1;absoluteArcSize=1;arcSize=10;dashed=0;whiteSpace=wrap;" vertex="1" parent="1">
          <mxGeometry x="1830" y="910" width="140" height="40" as="geometry" />
        </mxCell>
        <mxCell id="I7dAF6ZlbTrikf9QyhVA-25" value="" style="html=1;points=[];perimeter=orthogonalPerimeter;fillColor=strokeColor;direction=south;" vertex="1" parent="1">
          <mxGeometry x="787" y="400" width="80" height="5" as="geometry" />
        </mxCell>
        <mxCell id="I7dAF6ZlbTrikf9QyhVA-40" value="" style="edgeStyle=orthogonalEdgeStyle;rounded=0;orthogonalLoop=1;jettySize=auto;html=1;" edge="1" parent="1" source="I7dAF6ZlbTrikf9QyhVA-28" target="I7dAF6ZlbTrikf9QyhVA-33">
          <mxGeometry relative="1" as="geometry" />
        </mxCell>
        <mxCell id="I7dAF6ZlbTrikf9QyhVA-28" value="查看草稿箱" style="html=1;align=center;verticalAlign=top;rounded=1;absoluteArcSize=1;arcSize=10;dashed=0;whiteSpace=wrap;" vertex="1" parent="1">
          <mxGeometry x="340" y="470" width="140" height="40" as="geometry" />
        </mxCell>
        <mxCell id="I7dAF6ZlbTrikf9QyhVA-29" value="查看个人信息" style="html=1;align=center;verticalAlign=top;rounded=1;absoluteArcSize=1;arcSize=10;dashed=0;whiteSpace=wrap;" vertex="1" parent="1">
          <mxGeometry x="610" y="465" width="140" height="40" as="geometry" />
        </mxCell>
        <mxCell id="I7dAF6ZlbTrikf9QyhVA-30" value="注销" style="html=1;align=center;verticalAlign=top;rounded=1;absoluteArcSize=1;arcSize=10;dashed=0;whiteSpace=wrap;" vertex="1" parent="1">
          <mxGeometry x="867" y="465" width="140" height="40" as="geometry" />
        </mxCell>
        <mxCell id="I7dAF6ZlbTrikf9QyhVA-60" value="" style="edgeStyle=orthogonalEdgeStyle;rounded=0;orthogonalLoop=1;jettySize=auto;html=1;" edge="1" parent="1" source="I7dAF6ZlbTrikf9QyhVA-31" target="I7dAF6ZlbTrikf9QyhVA-55">
          <mxGeometry relative="1" as="geometry" />
        </mxCell>
        <mxCell id="I7dAF6ZlbTrikf9QyhVA-31" value="关注" style="html=1;align=center;verticalAlign=top;rounded=1;absoluteArcSize=1;arcSize=10;dashed=0;whiteSpace=wrap;" vertex="1" parent="1">
          <mxGeometry x="1040" y="465" width="140" height="40" as="geometry" />
        </mxCell>
        <mxCell id="I7dAF6ZlbTrikf9QyhVA-78" value="" style="edgeStyle=orthogonalEdgeStyle;rounded=0;orthogonalLoop=1;jettySize=auto;html=1;" edge="1" parent="1" source="I7dAF6ZlbTrikf9QyhVA-32" target="I7dAF6ZlbTrikf9QyhVA-66">
          <mxGeometry relative="1" as="geometry" />
        </mxCell>
        <mxCell id="I7dAF6ZlbTrikf9QyhVA-32" value="查看收藏夹" style="html=1;align=center;verticalAlign=top;rounded=1;absoluteArcSize=1;arcSize=10;dashed=0;whiteSpace=wrap;" vertex="1" parent="1">
          <mxGeometry x="1430" y="465" width="140" height="40" as="geometry" />
        </mxCell>
        <mxCell id="I7dAF6ZlbTrikf9QyhVA-39" value="" style="edgeStyle=orthogonalEdgeStyle;rounded=0;orthogonalLoop=1;jettySize=auto;html=1;" edge="1" parent="1" source="I7dAF6ZlbTrikf9QyhVA-33" target="I7dAF6ZlbTrikf9QyhVA-34">
          <mxGeometry relative="1" as="geometry" />
        </mxCell>
        <mxCell id="I7dAF6ZlbTrikf9QyhVA-33" value="点击草稿" style="html=1;align=center;verticalAlign=top;rounded=1;absoluteArcSize=1;arcSize=10;dashed=0;whiteSpace=wrap;" vertex="1" parent="1">
          <mxGeometry x="340" y="580" width="140" height="40" as="geometry" />
        </mxCell>
        <mxCell id="I7dAF6ZlbTrikf9QyhVA-37" value="" style="edgeStyle=orthogonalEdgeStyle;rounded=0;orthogonalLoop=1;jettySize=auto;html=1;" edge="1" parent="1" source="I7dAF6ZlbTrikf9QyhVA-34" target="I7dAF6ZlbTrikf9QyhVA-35">
          <mxGeometry relative="1" as="geometry" />
        </mxCell>
        <mxCell id="I7dAF6ZlbTrikf9QyhVA-38" value="" style="edgeStyle=orthogonalEdgeStyle;rounded=0;orthogonalLoop=1;jettySize=auto;html=1;" edge="1" parent="1" source="I7dAF6ZlbTrikf9QyhVA-34" target="I7dAF6ZlbTrikf9QyhVA-36">
          <mxGeometry relative="1" as="geometry" />
        </mxCell>
        <mxCell id="I7dAF6ZlbTrikf9QyhVA-34" value="是否编辑" style="rhombus;aspect=fixed;" vertex="1" parent="1">
          <mxGeometry x="350" y="673" width="120" height="120" as="geometry" />
        </mxCell>
        <mxCell id="I7dAF6ZlbTrikf9QyhVA-35" value="修改草稿" style="html=1;align=center;verticalAlign=top;rounded=1;absoluteArcSize=1;arcSize=10;dashed=0;whiteSpace=wrap;" vertex="1" parent="1">
          <mxGeometry x="150" y="713" width="140" height="40" as="geometry" />
        </mxCell>
        <mxCell id="I7dAF6ZlbTrikf9QyhVA-36" value="退出草稿页面" style="html=1;align=center;verticalAlign=top;rounded=1;absoluteArcSize=1;arcSize=10;dashed=0;whiteSpace=wrap;" vertex="1" parent="1">
          <mxGeometry x="340" y="840" width="140" height="40" as="geometry" />
        </mxCell>
        <mxCell id="I7dAF6ZlbTrikf9QyhVA-41" value="" style="html=1;points=[];perimeter=orthogonalPerimeter;fillColor=strokeColor;direction=south;" vertex="1" parent="1">
          <mxGeometry x="640" y="557.5" width="80" height="5" as="geometry" />
        </mxCell>
        <mxCell id="I7dAF6ZlbTrikf9QyhVA-42" value="完善个人信息" style="html=1;align=center;verticalAlign=top;rounded=1;absoluteArcSize=1;arcSize=10;dashed=0;whiteSpace=wrap;" vertex="1" parent="1">
          <mxGeometry x="530" y="605" width="140" height="40" as="geometry" />
        </mxCell>
        <mxCell id="I7dAF6ZlbTrikf9QyhVA-43" value="修改个人信息" style="html=1;align=center;verticalAlign=top;rounded=1;absoluteArcSize=1;arcSize=10;dashed=0;whiteSpace=wrap;" vertex="1" parent="1">
          <mxGeometry x="703" y="605" width="140" height="40" as="geometry" />
        </mxCell>
        <mxCell id="I7dAF6ZlbTrikf9QyhVA-44" value="" style="html=1;points=[];perimeter=orthogonalPerimeter;fillColor=strokeColor;direction=south;" vertex="1" parent="1">
          <mxGeometry x="640" y="695" width="80" height="5" as="geometry" />
        </mxCell>
        <mxCell id="I7dAF6ZlbTrikf9QyhVA-45" value="退出个人信息页面" style="html=1;align=center;verticalAlign=top;rounded=1;absoluteArcSize=1;arcSize=10;dashed=0;whiteSpace=wrap;" vertex="1" parent="1">
          <mxGeometry x="617" y="753" width="140" height="40" as="geometry" />
        </mxCell>
        <mxCell id="I7dAF6ZlbTrikf9QyhVA-49" value="" style="endArrow=open;startArrow=none;endFill=0;startFill=0;endSize=8;html=1;verticalAlign=bottom;labelBackgroundColor=none;strokeWidth=1;rounded=0;exitX=0.5;exitY=1;exitDx=0;exitDy=0;entryX=0.167;entryY=0.524;entryDx=0;entryDy=0;entryPerimeter=0;" edge="1" parent="1" source="I7dAF6ZlbTrikf9QyhVA-29" target="I7dAF6ZlbTrikf9QyhVA-41">
          <mxGeometry width="160" relative="1" as="geometry">
            <mxPoint x="740" y="530" as="sourcePoint" />
            <mxPoint x="900" y="530" as="targetPoint" />
          </mxGeometry>
        </mxCell>
        <mxCell id="I7dAF6ZlbTrikf9QyhVA-50" value="" style="endArrow=open;startArrow=none;endFill=0;startFill=0;endSize=8;html=1;verticalAlign=bottom;labelBackgroundColor=none;strokeWidth=1;rounded=0;exitX=1.162;exitY=0.591;exitDx=0;exitDy=0;exitPerimeter=0;entryX=0.5;entryY=0;entryDx=0;entryDy=0;" edge="1" parent="1" source="I7dAF6ZlbTrikf9QyhVA-41" target="I7dAF6ZlbTrikf9QyhVA-42">
          <mxGeometry width="160" relative="1" as="geometry">
            <mxPoint x="670" y="580" as="sourcePoint" />
            <mxPoint x="830" y="580" as="targetPoint" />
          </mxGeometry>
        </mxCell>
        <mxCell id="I7dAF6ZlbTrikf9QyhVA-51" value="" style="endArrow=open;startArrow=none;endFill=0;startFill=0;endSize=8;html=1;verticalAlign=bottom;labelBackgroundColor=none;strokeWidth=1;rounded=0;exitX=0.941;exitY=0.398;exitDx=0;exitDy=0;exitPerimeter=0;entryX=0.5;entryY=0;entryDx=0;entryDy=0;" edge="1" parent="1" source="I7dAF6ZlbTrikf9QyhVA-41" target="I7dAF6ZlbTrikf9QyhVA-43">
          <mxGeometry width="160" relative="1" as="geometry">
            <mxPoint x="720" y="580" as="sourcePoint" />
            <mxPoint x="880" y="580" as="targetPoint" />
          </mxGeometry>
        </mxCell>
        <mxCell id="I7dAF6ZlbTrikf9QyhVA-52" value="" style="endArrow=open;startArrow=none;endFill=0;startFill=0;endSize=8;html=1;verticalAlign=bottom;labelBackgroundColor=none;strokeWidth=1;rounded=0;exitX=0.5;exitY=1;exitDx=0;exitDy=0;entryX=0.145;entryY=0.494;entryDx=0;entryDy=0;entryPerimeter=0;" edge="1" parent="1" source="I7dAF6ZlbTrikf9QyhVA-42" target="I7dAF6ZlbTrikf9QyhVA-44">
          <mxGeometry width="160" relative="1" as="geometry">
            <mxPoint x="600" y="670" as="sourcePoint" />
            <mxPoint x="760" y="670" as="targetPoint" />
          </mxGeometry>
        </mxCell>
        <mxCell id="I7dAF6ZlbTrikf9QyhVA-53" value="" style="endArrow=open;startArrow=none;endFill=0;startFill=0;endSize=8;html=1;verticalAlign=bottom;labelBackgroundColor=none;strokeWidth=1;rounded=0;exitX=0.5;exitY=1;exitDx=0;exitDy=0;entryX=0.366;entryY=0.384;entryDx=0;entryDy=0;entryPerimeter=0;" edge="1" parent="1" source="I7dAF6ZlbTrikf9QyhVA-43" target="I7dAF6ZlbTrikf9QyhVA-44">
          <mxGeometry width="160" relative="1" as="geometry">
            <mxPoint x="760" y="670" as="sourcePoint" />
            <mxPoint x="920" y="670" as="targetPoint" />
          </mxGeometry>
        </mxCell>
        <mxCell id="I7dAF6ZlbTrikf9QyhVA-54" value="" style="endArrow=open;startArrow=none;endFill=0;startFill=0;endSize=8;html=1;verticalAlign=bottom;labelBackgroundColor=none;strokeWidth=1;rounded=0;exitX=0.807;exitY=0.419;exitDx=0;exitDy=0;exitPerimeter=0;entryX=0.5;entryY=0;entryDx=0;entryDy=0;" edge="1" parent="1" source="I7dAF6ZlbTrikf9QyhVA-44" target="I7dAF6ZlbTrikf9QyhVA-45">
          <mxGeometry width="160" relative="1" as="geometry">
            <mxPoint x="720" y="720" as="sourcePoint" />
            <mxPoint x="880" y="720" as="targetPoint" />
          </mxGeometry>
        </mxCell>
        <mxCell id="I7dAF6ZlbTrikf9QyhVA-61" value="" style="edgeStyle=orthogonalEdgeStyle;rounded=0;orthogonalLoop=1;jettySize=auto;html=1;" edge="1" parent="1" source="I7dAF6ZlbTrikf9QyhVA-55" target="I7dAF6ZlbTrikf9QyhVA-56">
          <mxGeometry relative="1" as="geometry" />
        </mxCell>
        <mxCell id="I7dAF6ZlbTrikf9QyhVA-55" value="查看已关注列表" style="html=1;align=center;verticalAlign=top;rounded=1;absoluteArcSize=1;arcSize=10;dashed=0;whiteSpace=wrap;" vertex="1" parent="1">
          <mxGeometry x="1040" y="565" width="140" height="40" as="geometry" />
        </mxCell>
        <mxCell id="I7dAF6ZlbTrikf9QyhVA-62" value="" style="edgeStyle=orthogonalEdgeStyle;rounded=0;orthogonalLoop=1;jettySize=auto;html=1;" edge="1" parent="1" source="I7dAF6ZlbTrikf9QyhVA-56" target="I7dAF6ZlbTrikf9QyhVA-57">
          <mxGeometry relative="1" as="geometry" />
        </mxCell>
        <mxCell id="I7dAF6ZlbTrikf9QyhVA-56" value="查看作品最新状态" style="html=1;align=center;verticalAlign=top;rounded=1;absoluteArcSize=1;arcSize=10;dashed=0;whiteSpace=wrap;" vertex="1" parent="1">
          <mxGeometry x="1040" y="660" width="140" height="40" as="geometry" />
        </mxCell>
        <mxCell id="I7dAF6ZlbTrikf9QyhVA-63" value="" style="edgeStyle=orthogonalEdgeStyle;rounded=0;orthogonalLoop=1;jettySize=auto;html=1;" edge="1" parent="1" source="I7dAF6ZlbTrikf9QyhVA-57" target="I7dAF6ZlbTrikf9QyhVA-58">
          <mxGeometry relative="1" as="geometry" />
        </mxCell>
        <mxCell id="I7dAF6ZlbTrikf9QyhVA-64" value="" style="edgeStyle=orthogonalEdgeStyle;rounded=0;orthogonalLoop=1;jettySize=auto;html=1;" edge="1" parent="1" source="I7dAF6ZlbTrikf9QyhVA-57" target="I7dAF6ZlbTrikf9QyhVA-59">
          <mxGeometry relative="1" as="geometry">
            <Array as="points">
              <mxPoint x="1280" y="813" />
            </Array>
          </mxGeometry>
        </mxCell>
        <mxCell id="I7dAF6ZlbTrikf9QyhVA-57" value="是否喜欢" style="rhombus;aspect=fixed;" vertex="1" parent="1">
          <mxGeometry x="1050" y="753" width="120" height="120" as="geometry" />
        </mxCell>
        <mxCell id="I7dAF6ZlbTrikf9QyhVA-58" value="退出页面" style="html=1;align=center;verticalAlign=top;rounded=1;absoluteArcSize=1;arcSize=10;dashed=0;whiteSpace=wrap;" vertex="1" parent="1">
          <mxGeometry x="1040" y="910" width="140" height="40" as="geometry" />
        </mxCell>
        <mxCell id="I7dAF6ZlbTrikf9QyhVA-65" style="edgeStyle=orthogonalEdgeStyle;rounded=0;orthogonalLoop=1;jettySize=auto;html=1;entryX=0;entryY=0.5;entryDx=0;entryDy=0;" edge="1" parent="1" source="I7dAF6ZlbTrikf9QyhVA-59" target="I7dAF6ZlbTrikf9QyhVA-32">
          <mxGeometry relative="1" as="geometry">
            <Array as="points">
              <mxPoint x="1310" y="485" />
            </Array>
          </mxGeometry>
        </mxCell>
        <mxCell id="I7dAF6ZlbTrikf9QyhVA-59" value="添加至收藏夹" style="html=1;align=center;verticalAlign=top;rounded=1;absoluteArcSize=1;arcSize=10;dashed=0;whiteSpace=wrap;" vertex="1" parent="1">
          <mxGeometry x="1240" y="565" width="140" height="40" as="geometry" />
        </mxCell>
        <mxCell id="I7dAF6ZlbTrikf9QyhVA-70" value="" style="edgeStyle=orthogonalEdgeStyle;rounded=0;orthogonalLoop=1;jettySize=auto;html=1;" edge="1" parent="1" source="I7dAF6ZlbTrikf9QyhVA-66" target="I7dAF6ZlbTrikf9QyhVA-67">
          <mxGeometry relative="1" as="geometry" />
        </mxCell>
        <mxCell id="I7dAF6ZlbTrikf9QyhVA-66" value="点击作品" style="html=1;align=center;verticalAlign=top;rounded=1;absoluteArcSize=1;arcSize=10;dashed=0;whiteSpace=wrap;" vertex="1" parent="1">
          <mxGeometry x="1430" y="564" width="140" height="40" as="geometry" />
        </mxCell>
        <mxCell id="I7dAF6ZlbTrikf9QyhVA-67" value="" style="html=1;points=[];perimeter=orthogonalPerimeter;fillColor=strokeColor;direction=south;" vertex="1" parent="1">
          <mxGeometry x="1459.5" y="695.5" width="80" height="5" as="geometry" />
        </mxCell>
        <mxCell id="I7dAF6ZlbTrikf9QyhVA-68" value="查看作品" style="html=1;align=center;verticalAlign=top;rounded=1;absoluteArcSize=1;arcSize=10;dashed=0;whiteSpace=wrap;" vertex="1" parent="1">
          <mxGeometry x="1340" y="760" width="140" height="40" as="geometry" />
        </mxCell>
        <mxCell id="I7dAF6ZlbTrikf9QyhVA-69" value="删除作品" style="html=1;align=center;verticalAlign=top;rounded=1;absoluteArcSize=1;arcSize=10;dashed=0;whiteSpace=wrap;" vertex="1" parent="1">
          <mxGeometry x="1530" y="760" width="140" height="40" as="geometry" />
        </mxCell>
        <mxCell id="I7dAF6ZlbTrikf9QyhVA-71" value="" style="endArrow=open;startArrow=none;endFill=0;startFill=0;endSize=8;html=1;verticalAlign=bottom;labelBackgroundColor=none;strokeWidth=1;rounded=0;entryX=0.5;entryY=0;entryDx=0;entryDy=0;" edge="1" parent="1" target="I7dAF6ZlbTrikf9QyhVA-68">
          <mxGeometry width="160" relative="1" as="geometry">
            <mxPoint x="1500" y="698" as="sourcePoint" />
            <mxPoint x="1620" y="730" as="targetPoint" />
          </mxGeometry>
        </mxCell>
        <mxCell id="I7dAF6ZlbTrikf9QyhVA-72" value="" style="endArrow=open;startArrow=none;endFill=0;startFill=0;endSize=8;html=1;verticalAlign=bottom;labelBackgroundColor=none;strokeWidth=1;rounded=0;entryX=0.5;entryY=0;entryDx=0;entryDy=0;exitX=0.854;exitY=0.476;exitDx=0;exitDy=0;exitPerimeter=0;" edge="1" parent="1" source="I7dAF6ZlbTrikf9QyhVA-67" target="I7dAF6ZlbTrikf9QyhVA-69">
          <mxGeometry width="160" relative="1" as="geometry">
            <mxPoint x="1503" y="703" as="sourcePoint" />
            <mxPoint x="1420" y="770" as="targetPoint" />
          </mxGeometry>
        </mxCell>
        <mxCell id="I7dAF6ZlbTrikf9QyhVA-77" value="" style="edgeStyle=orthogonalEdgeStyle;rounded=0;orthogonalLoop=1;jettySize=auto;html=1;" edge="1" parent="1" source="I7dAF6ZlbTrikf9QyhVA-73" target="I7dAF6ZlbTrikf9QyhVA-76">
          <mxGeometry relative="1" as="geometry" />
        </mxCell>
        <mxCell id="I7dAF6ZlbTrikf9QyhVA-73" value="" style="html=1;points=[];perimeter=orthogonalPerimeter;fillColor=strokeColor;direction=south;" vertex="1" parent="1">
          <mxGeometry x="1460" y="860" width="80" height="5" as="geometry" />
        </mxCell>
        <mxCell id="I7dAF6ZlbTrikf9QyhVA-74" value="" style="endArrow=open;startArrow=none;endFill=0;startFill=0;endSize=8;html=1;verticalAlign=bottom;labelBackgroundColor=none;strokeWidth=1;rounded=0;exitX=0.5;exitY=1;exitDx=0;exitDy=0;entryX=-0.165;entryY=0.494;entryDx=0;entryDy=0;entryPerimeter=0;" edge="1" parent="1" source="I7dAF6ZlbTrikf9QyhVA-68" target="I7dAF6ZlbTrikf9QyhVA-73">
          <mxGeometry width="160" relative="1" as="geometry">
            <mxPoint x="1410" y="830" as="sourcePoint" />
            <mxPoint x="1570" y="830" as="targetPoint" />
          </mxGeometry>
        </mxCell>
        <mxCell id="I7dAF6ZlbTrikf9QyhVA-75" value="" style="endArrow=open;startArrow=none;endFill=0;startFill=0;endSize=8;html=1;verticalAlign=bottom;labelBackgroundColor=none;strokeWidth=1;rounded=0;exitX=0.5;exitY=1;exitDx=0;exitDy=0;entryX=0.113;entryY=0.433;entryDx=0;entryDy=0;entryPerimeter=0;" edge="1" parent="1" source="I7dAF6ZlbTrikf9QyhVA-69" target="I7dAF6ZlbTrikf9QyhVA-73">
          <mxGeometry width="160" relative="1" as="geometry">
            <mxPoint x="1560" y="840" as="sourcePoint" />
            <mxPoint x="1720" y="840" as="targetPoint" />
          </mxGeometry>
        </mxCell>
        <mxCell id="I7dAF6ZlbTrikf9QyhVA-76" value="退出收藏夹页面" style="html=1;align=center;verticalAlign=top;rounded=1;absoluteArcSize=1;arcSize=10;dashed=0;whiteSpace=wrap;" vertex="1" parent="1">
          <mxGeometry x="1430" y="910" width="140" height="40" as="geometry" />
        </mxCell>
        <mxCell id="I7dAF6ZlbTrikf9QyhVA-101" style="edgeStyle=orthogonalEdgeStyle;rounded=0;orthogonalLoop=1;jettySize=auto;html=1;entryX=0.5;entryY=0;entryDx=0;entryDy=0;" edge="1" parent="1" source="I7dAF6ZlbTrikf9QyhVA-79" target="I7dAF6ZlbTrikf9QyhVA-24">
          <mxGeometry relative="1" as="geometry" />
        </mxCell>
        <mxCell id="I7dAF6ZlbTrikf9QyhVA-103" value="" style="edgeStyle=orthogonalEdgeStyle;rounded=0;orthogonalLoop=1;jettySize=auto;html=1;" edge="1" parent="1" source="I7dAF6ZlbTrikf9QyhVA-79" target="I7dAF6ZlbTrikf9QyhVA-102">
          <mxGeometry relative="1" as="geometry" />
        </mxCell>
        <mxCell id="I7dAF6ZlbTrikf9QyhVA-79" value="是否喜欢" style="rhombus;aspect=fixed;" vertex="1" parent="1">
          <mxGeometry x="1840" y="524" width="120" height="120" as="geometry" />
        </mxCell>
        <mxCell id="I7dAF6ZlbTrikf9QyhVA-83" value="" style="endArrow=open;startArrow=none;endFill=0;startFill=0;endSize=8;html=1;verticalAlign=bottom;labelBackgroundColor=none;strokeWidth=1;rounded=0;entryX=0.5;entryY=0;entryDx=0;entryDy=0;exitX=0.832;exitY=0.489;exitDx=0;exitDy=0;exitPerimeter=0;" edge="1" parent="1" source="I7dAF6ZlbTrikf9QyhVA-18" target="I7dAF6ZlbTrikf9QyhVA-19">
          <mxGeometry width="160" relative="1" as="geometry">
            <mxPoint x="-400" y="740.5" as="sourcePoint" />
            <mxPoint x="-280" y="777.5" as="targetPoint" />
          </mxGeometry>
        </mxCell>
        <mxCell id="I7dAF6ZlbTrikf9QyhVA-84" value="" style="endArrow=open;startArrow=none;endFill=0;startFill=0;endSize=8;html=1;verticalAlign=bottom;labelBackgroundColor=none;strokeWidth=1;rounded=0;entryX=0.5;entryY=0;entryDx=0;entryDy=0;exitX=0.924;exitY=0.468;exitDx=0;exitDy=0;exitPerimeter=0;" edge="1" parent="1" source="I7dAF6ZlbTrikf9QyhVA-18">
          <mxGeometry width="160" relative="1" as="geometry">
            <mxPoint x="-399" y="751.5" as="sourcePoint" />
            <mxPoint x="-300" y="802.5" as="targetPoint" />
          </mxGeometry>
        </mxCell>
        <mxCell id="I7dAF6ZlbTrikf9QyhVA-85" value="" style="endArrow=open;startArrow=none;endFill=0;startFill=0;endSize=8;html=1;verticalAlign=bottom;labelBackgroundColor=none;strokeWidth=1;rounded=0;entryX=-0.048;entryY=0.473;entryDx=0;entryDy=0;entryPerimeter=0;exitX=0.5;exitY=1;exitDx=0;exitDy=0;" edge="1" parent="1" source="I7dAF6ZlbTrikf9QyhVA-19" target="I7dAF6ZlbTrikf9QyhVA-21">
          <mxGeometry width="160" relative="1" as="geometry">
            <mxPoint x="-550" y="877.5" as="sourcePoint" />
            <mxPoint x="-390" y="877.5" as="targetPoint" />
          </mxGeometry>
        </mxCell>
        <mxCell id="I7dAF6ZlbTrikf9QyhVA-86" value="" style="endArrow=open;startArrow=none;endFill=0;startFill=0;endSize=8;html=1;verticalAlign=bottom;labelBackgroundColor=none;strokeWidth=1;rounded=0;entryX=-0.033;entryY=0.392;entryDx=0;entryDy=0;entryPerimeter=0;exitX=0.5;exitY=1;exitDx=0;exitDy=0;" edge="1" parent="1" target="I7dAF6ZlbTrikf9QyhVA-21">
          <mxGeometry width="160" relative="1" as="geometry">
            <mxPoint x="-300" y="842.5" as="sourcePoint" />
            <mxPoint x="-270" y="857.5" as="targetPoint" />
          </mxGeometry>
        </mxCell>
        <mxCell id="I7dAF6ZlbTrikf9QyhVA-88" value="" style="endArrow=open;startArrow=none;endFill=0;startFill=0;endSize=8;html=1;verticalAlign=bottom;labelBackgroundColor=none;strokeWidth=1;rounded=0;entryX=0.5;entryY=0;entryDx=0;entryDy=0;exitX=0.5;exitY=1;exitDx=0;exitDy=0;" edge="1" parent="1" source="I7dAF6ZlbTrikf9QyhVA-45" target="I7dAF6ZlbTrikf9QyhVA-2">
          <mxGeometry width="160" relative="1" as="geometry">
            <mxPoint x="740" y="840" as="sourcePoint" />
            <mxPoint x="900" y="840" as="targetPoint" />
          </mxGeometry>
        </mxCell>
        <mxCell id="I7dAF6ZlbTrikf9QyhVA-89" value="" style="endArrow=open;startArrow=none;endFill=0;startFill=0;endSize=8;html=1;verticalAlign=bottom;labelBackgroundColor=none;strokeWidth=1;rounded=0;exitX=0.5;exitY=1;exitDx=0;exitDy=0;entryX=0.5;entryY=0;entryDx=0;entryDy=0;" edge="1" parent="1" source="I7dAF6ZlbTrikf9QyhVA-30" target="I7dAF6ZlbTrikf9QyhVA-2">
          <mxGeometry width="160" relative="1" as="geometry">
            <mxPoint x="930" y="680" as="sourcePoint" />
            <mxPoint x="1090" y="680" as="targetPoint" />
          </mxGeometry>
        </mxCell>
        <mxCell id="I7dAF6ZlbTrikf9QyhVA-90" value="" style="endArrow=open;startArrow=none;endFill=0;startFill=0;endSize=8;html=1;verticalAlign=bottom;labelBackgroundColor=none;strokeWidth=1;rounded=0;entryX=0.5;entryY=0;entryDx=0;entryDy=0;exitX=0.82;exitY=0.555;exitDx=0;exitDy=0;exitPerimeter=0;" edge="1" parent="1" source="I7dAF6ZlbTrikf9QyhVA-25" target="I7dAF6ZlbTrikf9QyhVA-28">
          <mxGeometry width="160" relative="1" as="geometry">
            <mxPoint x="540" y="420" as="sourcePoint" />
            <mxPoint x="700" y="420" as="targetPoint" />
          </mxGeometry>
        </mxCell>
        <mxCell id="I7dAF6ZlbTrikf9QyhVA-92" value="" style="endArrow=open;startArrow=none;endFill=0;startFill=0;endSize=8;html=1;verticalAlign=bottom;labelBackgroundColor=none;strokeWidth=1;rounded=0;exitX=0.98;exitY=0.505;exitDx=0;exitDy=0;exitPerimeter=0;entryX=0.5;entryY=0;entryDx=0;entryDy=0;" edge="1" parent="1" source="I7dAF6ZlbTrikf9QyhVA-25" target="I7dAF6ZlbTrikf9QyhVA-29">
          <mxGeometry width="160" relative="1" as="geometry">
            <mxPoint x="790" y="460" as="sourcePoint" />
            <mxPoint x="950" y="460" as="targetPoint" />
          </mxGeometry>
        </mxCell>
        <mxCell id="I7dAF6ZlbTrikf9QyhVA-93" value="" style="endArrow=open;startArrow=none;endFill=0;startFill=0;endSize=8;html=1;verticalAlign=bottom;labelBackgroundColor=none;strokeWidth=1;rounded=0;exitX=1.14;exitY=0.495;exitDx=0;exitDy=0;exitPerimeter=0;entryX=0.543;entryY=0.017;entryDx=0;entryDy=0;entryPerimeter=0;" edge="1" parent="1" source="I7dAF6ZlbTrikf9QyhVA-25" target="I7dAF6ZlbTrikf9QyhVA-30">
          <mxGeometry width="160" relative="1" as="geometry">
            <mxPoint x="860" y="430" as="sourcePoint" />
            <mxPoint x="1020" y="430" as="targetPoint" />
          </mxGeometry>
        </mxCell>
        <mxCell id="I7dAF6ZlbTrikf9QyhVA-94" value="" style="endArrow=open;startArrow=none;endFill=0;startFill=0;endSize=8;html=1;verticalAlign=bottom;labelBackgroundColor=none;strokeWidth=1;rounded=0;entryX=0.5;entryY=0;entryDx=0;entryDy=0;exitX=1.086;exitY=0.47;exitDx=0;exitDy=0;exitPerimeter=0;" edge="1" parent="1" source="I7dAF6ZlbTrikf9QyhVA-25" target="I7dAF6ZlbTrikf9QyhVA-31">
          <mxGeometry width="160" relative="1" as="geometry">
            <mxPoint x="930" y="410" as="sourcePoint" />
            <mxPoint x="1090" y="410" as="targetPoint" />
          </mxGeometry>
        </mxCell>
        <mxCell id="I7dAF6ZlbTrikf9QyhVA-95" value="" style="endArrow=open;startArrow=none;endFill=0;startFill=0;endSize=8;html=1;verticalAlign=bottom;labelBackgroundColor=none;strokeWidth=1;rounded=0;exitX=0.971;exitY=0.496;exitDx=0;exitDy=0;exitPerimeter=0;entryX=0.25;entryY=0;entryDx=0;entryDy=0;" edge="1" parent="1" source="I7dAF6ZlbTrikf9QyhVA-25" target="I7dAF6ZlbTrikf9QyhVA-32">
          <mxGeometry width="160" relative="1" as="geometry">
            <mxPoint x="970" y="410" as="sourcePoint" />
            <mxPoint x="1130" y="410" as="targetPoint" />
          </mxGeometry>
        </mxCell>
        <mxCell id="I7dAF6ZlbTrikf9QyhVA-96" value="" style="endArrow=open;startArrow=none;endFill=0;startFill=0;endSize=8;html=1;verticalAlign=bottom;labelBackgroundColor=none;strokeWidth=1;rounded=0;exitX=0.5;exitY=1;exitDx=0;exitDy=0;entryX=1;entryY=0.5;entryDx=0;entryDy=0;" edge="1" parent="1" source="I7dAF6ZlbTrikf9QyhVA-76" target="I7dAF6ZlbTrikf9QyhVA-2">
          <mxGeometry width="160" relative="1" as="geometry">
            <mxPoint x="1500" y="1040" as="sourcePoint" />
            <mxPoint x="1660" y="1040" as="targetPoint" />
          </mxGeometry>
        </mxCell>
        <mxCell id="I7dAF6ZlbTrikf9QyhVA-97" value="" style="endArrow=open;startArrow=none;endFill=0;startFill=0;endSize=8;html=1;verticalAlign=bottom;labelBackgroundColor=none;strokeWidth=1;rounded=0;exitX=0.5;exitY=1;exitDx=0;exitDy=0;entryX=0.75;entryY=0;entryDx=0;entryDy=0;" edge="1" parent="1" source="I7dAF6ZlbTrikf9QyhVA-58" target="I7dAF6ZlbTrikf9QyhVA-2">
          <mxGeometry width="160" relative="1" as="geometry">
            <mxPoint x="1130" y="1060" as="sourcePoint" />
            <mxPoint x="1290" y="1060" as="targetPoint" />
          </mxGeometry>
        </mxCell>
        <mxCell id="I7dAF6ZlbTrikf9QyhVA-98" value="" style="endArrow=open;startArrow=none;endFill=0;startFill=0;endSize=8;html=1;verticalAlign=bottom;labelBackgroundColor=none;strokeWidth=1;rounded=0;exitX=0.845;exitY=0.438;exitDx=0;exitDy=0;exitPerimeter=0;entryX=0;entryY=0.5;entryDx=0;entryDy=0;" edge="1" parent="1" source="I7dAF6ZlbTrikf9QyhVA-9" target="I7dAF6ZlbTrikf9QyhVA-13">
          <mxGeometry width="160" relative="1" as="geometry">
            <mxPoint x="1020" y="280" as="sourcePoint" />
            <mxPoint x="1180" y="280" as="targetPoint" />
          </mxGeometry>
        </mxCell>
        <mxCell id="I7dAF6ZlbTrikf9QyhVA-104" value="" style="edgeStyle=orthogonalEdgeStyle;rounded=0;orthogonalLoop=1;jettySize=auto;html=1;" edge="1" parent="1" source="I7dAF6ZlbTrikf9QyhVA-102" target="I7dAF6ZlbTrikf9QyhVA-66">
          <mxGeometry relative="1" as="geometry" />
        </mxCell>
        <mxCell id="I7dAF6ZlbTrikf9QyhVA-102" value="添加至收藏夹" style="html=1;align=center;verticalAlign=top;rounded=1;absoluteArcSize=1;arcSize=10;dashed=0;whiteSpace=wrap;" vertex="1" parent="1">
          <mxGeometry x="1640" y="564" width="140" height="40" as="geometry" />
        </mxCell>
        <mxCell id="I7dAF6ZlbTrikf9QyhVA-105" value="" style="endArrow=open;startArrow=none;endFill=0;startFill=0;endSize=8;html=1;verticalAlign=bottom;labelBackgroundColor=none;strokeWidth=1;rounded=0;exitX=0.5;exitY=1;exitDx=0;exitDy=0;entryX=1;entryY=0.75;entryDx=0;entryDy=0;" edge="1" parent="1" source="I7dAF6ZlbTrikf9QyhVA-24" target="I7dAF6ZlbTrikf9QyhVA-2">
          <mxGeometry width="160" relative="1" as="geometry">
            <mxPoint x="1580" y="1020" as="sourcePoint" />
            <mxPoint x="1740" y="1020" as="targetPoint" />
          </mxGeometry>
        </mxCell>
        <mxCell id="I7dAF6ZlbTrikf9QyhVA-107" value="" style="endArrow=open;startArrow=none;endFill=0;startFill=0;endSize=8;html=1;verticalAlign=bottom;labelBackgroundColor=none;strokeWidth=1;rounded=0;entryX=1;entryY=0.5;entryDx=0;entryDy=0;exitX=1;exitY=0.537;exitDx=0;exitDy=0;exitPerimeter=0;" edge="1" parent="1" source="I7dAF6ZlbTrikf9QyhVA-9" target="I7dAF6ZlbTrikf9QyhVA-11">
          <mxGeometry width="160" relative="1" as="geometry">
            <mxPoint x="320" y="310" as="sourcePoint" />
            <mxPoint x="480" y="310" as="targetPoint" />
          </mxGeometry>
        </mxCell>
        <mxCell id="I7dAF6ZlbTrikf9QyhVA-112" value="" style="edgeStyle=orthogonalEdgeStyle;rounded=0;orthogonalLoop=1;jettySize=auto;html=1;" edge="1" parent="1" source="I7dAF6ZlbTrikf9QyhVA-108">
          <mxGeometry relative="1" as="geometry">
            <mxPoint x="-170" y="635" as="targetPoint" />
          </mxGeometry>
        </mxCell>
        <mxCell id="I7dAF6ZlbTrikf9QyhVA-108" value="上传作品" style="html=1;align=center;verticalAlign=top;rounded=1;absoluteArcSize=1;arcSize=10;dashed=0;whiteSpace=wrap;" vertex="1" parent="1">
          <mxGeometry x="-60" y="615" width="140" height="40" as="geometry" />
        </mxCell>
        <mxCell id="I7dAF6ZlbTrikf9QyhVA-113" style="edgeStyle=orthogonalEdgeStyle;rounded=0;orthogonalLoop=1;jettySize=auto;html=1;entryX=0;entryY=0.5;entryDx=0;entryDy=0;" edge="1" parent="1" target="I7dAF6ZlbTrikf9QyhVA-11">
          <mxGeometry relative="1" as="geometry">
            <mxPoint x="-230.0000000000009" y="575.0000000000007" as="sourcePoint" />
            <Array as="points">
              <mxPoint x="-230" y="480" />
            </Array>
          </mxGeometry>
        </mxCell>
        <mxCell id="I7dAF6ZlbTrikf9QyhVA-114" style="edgeStyle=orthogonalEdgeStyle;rounded=0;orthogonalLoop=1;jettySize=auto;html=1;entryX=0;entryY=0.5;entryDx=0;entryDy=0;" edge="1" parent="1" target="I7dAF6ZlbTrikf9QyhVA-111">
          <mxGeometry relative="1" as="geometry">
            <mxPoint x="-230.0000000000009" y="694.9999999999995" as="sourcePoint" />
            <Array as="points">
              <mxPoint x="-230" y="750" />
            </Array>
          </mxGeometry>
        </mxCell>
        <mxCell id="I7dAF6ZlbTrikf9QyhVA-110" value="是否合法？" style="rhombus;aspect=fixed;" vertex="1" parent="1">
          <mxGeometry x="-290" y="575" width="120" height="120" as="geometry" />
        </mxCell>
        <mxCell id="I7dAF6ZlbTrikf9QyhVA-120" value="" style="edgeStyle=orthogonalEdgeStyle;rounded=0;orthogonalLoop=1;jettySize=auto;html=1;" edge="1" parent="1" source="I7dAF6ZlbTrikf9QyhVA-111" target="I7dAF6ZlbTrikf9QyhVA-115">
          <mxGeometry relative="1" as="geometry" />
        </mxCell>
        <mxCell id="I7dAF6ZlbTrikf9QyhVA-111" value="生成照片" style="html=1;align=center;verticalAlign=top;rounded=1;absoluteArcSize=1;arcSize=10;dashed=0;whiteSpace=wrap;" vertex="1" parent="1">
          <mxGeometry x="-60" y="730" width="140" height="40" as="geometry" />
        </mxCell>
        <mxCell id="I7dAF6ZlbTrikf9QyhVA-117" style="edgeStyle=orthogonalEdgeStyle;rounded=0;orthogonalLoop=1;jettySize=auto;html=1;entryX=0;entryY=0.5;entryDx=0;entryDy=0;" edge="1" parent="1" source="I7dAF6ZlbTrikf9QyhVA-115" target="I7dAF6ZlbTrikf9QyhVA-116">
          <mxGeometry relative="1" as="geometry" />
        </mxCell>
        <mxCell id="I7dAF6ZlbTrikf9QyhVA-121" value="" style="edgeStyle=orthogonalEdgeStyle;rounded=0;orthogonalLoop=1;jettySize=auto;html=1;" edge="1" parent="1" source="I7dAF6ZlbTrikf9QyhVA-115" target="I7dAF6ZlbTrikf9QyhVA-119">
          <mxGeometry relative="1" as="geometry" />
        </mxCell>
        <mxCell id="I7dAF6ZlbTrikf9QyhVA-115" value="是否发布" style="rhombus;aspect=fixed;" vertex="1" parent="1">
          <mxGeometry x="-50" y="830" width="120" height="120" as="geometry" />
        </mxCell>
        <mxCell id="I7dAF6ZlbTrikf9QyhVA-118" style="edgeStyle=orthogonalEdgeStyle;rounded=0;orthogonalLoop=1;jettySize=auto;html=1;entryX=0;entryY=0.5;entryDx=0;entryDy=0;" edge="1" parent="1" source="I7dAF6ZlbTrikf9QyhVA-116" target="I7dAF6ZlbTrikf9QyhVA-28">
          <mxGeometry relative="1" as="geometry">
            <Array as="points">
              <mxPoint x="220" y="490" />
            </Array>
          </mxGeometry>
        </mxCell>
        <mxCell id="I7dAF6ZlbTrikf9QyhVA-116" value="存为草稿箱" style="html=1;align=center;verticalAlign=top;rounded=1;absoluteArcSize=1;arcSize=10;dashed=0;whiteSpace=wrap;" vertex="1" parent="1">
          <mxGeometry x="150" y="580" width="140" height="40" as="geometry" />
        </mxCell>
        <mxCell id="I7dAF6ZlbTrikf9QyhVA-123" value="" style="edgeStyle=orthogonalEdgeStyle;rounded=0;orthogonalLoop=1;jettySize=auto;html=1;" edge="1" parent="1" source="I7dAF6ZlbTrikf9QyhVA-119" target="I7dAF6ZlbTrikf9QyhVA-122">
          <mxGeometry relative="1" as="geometry" />
        </mxCell>
        <mxCell id="I7dAF6ZlbTrikf9QyhVA-119" value="发布作品" style="html=1;align=center;verticalAlign=top;rounded=1;absoluteArcSize=1;arcSize=10;dashed=0;whiteSpace=wrap;" vertex="1" parent="1">
          <mxGeometry x="-60" y="1020" width="140" height="40" as="geometry" />
        </mxCell>
        <mxCell id="I7dAF6ZlbTrikf9QyhVA-122" value="退出创作界面" style="html=1;align=center;verticalAlign=top;rounded=1;absoluteArcSize=1;arcSize=10;dashed=0;whiteSpace=wrap;" vertex="1" parent="1">
          <mxGeometry x="-60" y="1120" width="140" height="40" as="geometry" />
        </mxCell>
        <mxCell id="I7dAF6ZlbTrikf9QyhVA-124" value="" style="endArrow=open;startArrow=none;endFill=0;startFill=0;endSize=8;html=1;verticalAlign=bottom;labelBackgroundColor=none;strokeWidth=1;rounded=0;entryX=0;entryY=0.5;entryDx=0;entryDy=0;exitX=1;exitY=0.5;exitDx=0;exitDy=0;" edge="1" parent="1" source="I7dAF6ZlbTrikf9QyhVA-122" target="I7dAF6ZlbTrikf9QyhVA-2">
          <mxGeometry width="160" relative="1" as="geometry">
            <mxPoint x="190" y="1070" as="sourcePoint" />
            <mxPoint x="350" y="1070" as="targetPoint" />
          </mxGeometry>
        </mxCell>
        <mxCell id="I7dAF6ZlbTrikf9QyhVA-125" value="" style="endArrow=open;startArrow=none;endFill=0;startFill=0;endSize=8;html=1;verticalAlign=bottom;labelBackgroundColor=none;strokeWidth=1;rounded=0;exitX=0.34;exitY=0.759;exitDx=0;exitDy=0;exitPerimeter=0;" edge="1" parent="1" source="I7dAF6ZlbTrikf9QyhVA-9">
          <mxGeometry width="160" relative="1" as="geometry">
            <mxPoint x="810" y="280" as="sourcePoint" />
            <mxPoint x="-340" y="430" as="targetPoint" />
          </mxGeometry>
        </mxCell>
        <mxCell id="I7dAF6ZlbTrikf9QyhVA-126" value="" style="endArrow=open;startArrow=none;endFill=0;startFill=0;endSize=8;html=1;verticalAlign=bottom;labelBackgroundColor=none;strokeWidth=1;rounded=0;entryX=0;entryY=0.75;entryDx=0;entryDy=0;exitX=1;exitY=1;exitDx=0;exitDy=0;" edge="1" parent="1" source="I7dAF6ZlbTrikf9QyhVA-22" target="I7dAF6ZlbTrikf9QyhVA-2">
          <mxGeometry width="160" relative="1" as="geometry">
            <mxPoint x="-320" y="1090" as="sourcePoint" />
            <mxPoint x="760" y="1070" as="targetPoint" />
          </mxGeometry>
        </mxCell>
        <mxCell id="I7dAF6ZlbTrikf9QyhVA-127" value="" style="endArrow=open;startArrow=none;endFill=0;startFill=0;endSize=8;html=1;verticalAlign=bottom;labelBackgroundColor=none;strokeWidth=1;rounded=0;entryX=0;entryY=0.25;entryDx=0;entryDy=0;exitX=0.5;exitY=1;exitDx=0;exitDy=0;" edge="1" parent="1" source="I7dAF6ZlbTrikf9QyhVA-36" target="I7dAF6ZlbTrikf9QyhVA-2">
          <mxGeometry width="160" relative="1" as="geometry">
            <mxPoint x="470" y="940" as="sourcePoint" />
            <mxPoint x="630" y="940" as="targetPoint" />
          </mxGeometry>
        </mxCell>
        <mxCell id="I7dAF6ZlbTrikf9QyhVA-129" value="不合法" style="text;html=1;align=center;verticalAlign=middle;resizable=0;points=[];autosize=1;strokeColor=none;fillColor=none;" vertex="1" parent="1">
          <mxGeometry x="-180" y="455" width="60" height="30" as="geometry" />
        </mxCell>
        <mxCell id="I7dAF6ZlbTrikf9QyhVA-130" value="合法" style="text;html=1;align=center;verticalAlign=middle;resizable=0;points=[];autosize=1;strokeColor=none;fillColor=none;" vertex="1" parent="1">
          <mxGeometry x="-165" y="725" width="50" height="30" as="geometry" />
        </mxCell>
        <mxCell id="I7dAF6ZlbTrikf9QyhVA-131" value="否" style="text;html=1;align=center;verticalAlign=middle;resizable=0;points=[];autosize=1;strokeColor=none;fillColor=none;" vertex="1" parent="1">
          <mxGeometry x="70" y="865" width="40" height="30" as="geometry" />
        </mxCell>
        <mxCell id="I7dAF6ZlbTrikf9QyhVA-132" value="发布" style="text;html=1;align=center;verticalAlign=middle;resizable=0;points=[];autosize=1;strokeColor=none;fillColor=none;" vertex="1" parent="1">
          <mxGeometry x="20" y="970" width="50" height="30" as="geometry" />
        </mxCell>
        <mxCell id="I7dAF6ZlbTrikf9QyhVA-133" value="编辑" style="text;html=1;align=center;verticalAlign=middle;resizable=0;points=[];autosize=1;strokeColor=none;fillColor=none;" vertex="1" parent="1">
          <mxGeometry x="305" y="715" width="50" height="30" as="geometry" />
        </mxCell>
        <mxCell id="I7dAF6ZlbTrikf9QyhVA-134" value="不编辑" style="text;html=1;align=center;verticalAlign=middle;resizable=0;points=[];autosize=1;strokeColor=none;fillColor=none;" vertex="1" parent="1">
          <mxGeometry x="400" y="795" width="60" height="30" as="geometry" />
        </mxCell>
        <mxCell id="I7dAF6ZlbTrikf9QyhVA-135" value="喜欢" style="text;html=1;align=center;verticalAlign=middle;resizable=0;points=[];autosize=1;strokeColor=none;fillColor=none;" vertex="1" parent="1">
          <mxGeometry x="1205" y="790" width="50" height="30" as="geometry" />
        </mxCell>
        <mxCell id="I7dAF6ZlbTrikf9QyhVA-136" value="不喜欢" style="text;html=1;align=center;verticalAlign=middle;resizable=0;points=[];autosize=1;strokeColor=none;fillColor=none;" vertex="1" parent="1">
          <mxGeometry x="1110" y="875" width="60" height="30" as="geometry" />
        </mxCell>
        <mxCell id="I7dAF6ZlbTrikf9QyhVA-137" value="喜欢" style="text;html=1;align=center;verticalAlign=middle;resizable=0;points=[];autosize=1;strokeColor=none;fillColor=none;" vertex="1" parent="1">
          <mxGeometry x="1790" y="557.5" width="50" height="30" as="geometry" />
        </mxCell>
        <mxCell id="I7dAF6ZlbTrikf9QyhVA-138" value="不喜欢" style="text;html=1;align=center;verticalAlign=middle;resizable=0;points=[];autosize=1;strokeColor=none;fillColor=none;" vertex="1" parent="1">
          <mxGeometry x="1910" y="718" width="60" height="30" as="geometry" />
        </mxCell>
      </root>
    </mxGraphModel>
  </diagram>
</mxfile>
